Coordinates
version=1
nRows=13
nColumns=22
inDegrees=yes

Units are S.I. units (second, meters, Newtons, ...)
If the header above contains a line with 'inDegrees', this indicates whether rotational values are in degrees (yes) or radians (no).

endheader
time	pelvis_tilt	pelvis_list	pelvis_rotation	pelvis_tx	pelvis_ty	pelvis_tz	hip_flexion_r	hip_adduction_r	hip_rotation_r	knee_angle_r	ankle_angle_r	subtalar_angle_r	hip_flexion_l	hip_adduction_l	hip_rotation_l	knee_angle_l	ankle_angle_l	subtalar_angle_l	lumbar_extension	lumbar_bending	lumbar_rotation
      0.01000000	     -0.71058761	      4.07063976	    177.34478710	     -1.40546468	      1.02704840	     -0.05690240	      3.28876296	      6.42525174	     -3.29661506	    -10.52269445	      6.31259640	     -3.19750602	      1.87250378	     -3.07252786	     -5.12739384	    -11.19832274	     10.13764652	     -1.86618266	    -10.37155932	      4.44024133	      3.52108516
      0.02000000	     -0.71001644	      4.06833256	    177.35294403	     -1.40544087	      1.02704506	     -0.05697096	      3.29139832	      6.42770457	     -3.29713888	    -10.52457868	      6.31143020	     -3.19641909	      1.87563706	     -3.07565410	     -5.12737772	    -11.19628619	     10.13799854	     -1.86612553	    -10.37713073	      4.43565943	      3.52417134
      0.03000000	     -0.71438386	      4.06481023	    177.36498888	     -1.40538842	      1.02704719	     -0.05704578	      3.30162654	      6.42806724	     -3.31106083	    -10.54734180	      6.30240227	     -3.18700077	      1.88404668	     -3.07791194	     -5.11127352	    -11.21240714	     10.13734906	     -1.86481124	    -10.39351870	      4.42764339	      3.53995721
      0.04000000	     -0.71218705	      4.06206914	    177.37378869	     -1.40535285	      1.02704394	     -0.05713518	      3.30710350	      6.43148685	     -3.31341159	    -10.54823941	      6.30234701	     -3.18540530	      1.88913906	     -3.08208614	     -5.11069597	    -11.20872547	     10.13762287	     -1.86461391	    -10.40292314	      4.42251468	      3.54234947
      0.05000000	     -0.71526414	      4.06040436	    177.38872533	     -1.40528796	      1.02704556	     -0.05722076	      3.32518464	      6.43411047	     -3.33553833	    -10.58114749	      6.30179064	     -3.17675603	      1.90238749	     -3.08736810	     -5.08538713	    -11.22978786	     10.13370600	     -1.86232843	    -10.42316380	      4.41634726	      3.55667397
      0.06000000	     -0.71263760	      4.05776404	    177.39702701	     -1.40526017	      1.02704307	     -0.05731666	      3.33105735	      6.43755005	     -3.33760746	    -10.58203282	      6.30294029	     -3.17604478	      1.90734713	     -3.09206968	     -5.08482020	    -11.22599301	     10.13386045	     -1.86212561	    -10.43222515	      4.41111804	      3.55788695
      0.07000000	     -0.70183114	      4.05332179	    177.42160257	     -1.40519597	      1.02701724	     -0.05738601	      3.37383313	      6.43519608	     -3.40079294	    -10.63278433	      6.33111156	     -3.16627430	      1.93819746	     -3.09408042	     -5.04809605	    -11.24739137	     10.13204403	     -1.85542575	    -10.43636732	      4.40527535	      3.54893406
      0.08000000	     -0.70233088	      4.04973073	    177.42928148	     -1.40516266	      1.02701780	     -0.05748540	      3.38465364	      6.43771804	     -3.39504248	    -10.65039244	      6.32886656	     -3.16471805	      1.94721028	     -3.09753360	     -5.03714288	    -11.25915157	     10.12937541	     -1.85424254	    -10.45114511	      4.39698164	      3.55166316
      0.09000000	     -0.70343008	      4.04576934	    177.43392377	     -1.40513656	      1.02701744	     -0.05758299	      3.39796058	      6.43898054	     -3.39824447	    -10.67523618	      6.33023916	     -3.16142370	      1.95326777	     -3.09961006	     -5.02891624	    -11.26771950	     10.12788675	     -1.85216340	    -10.46691003	      4.38920394	      3.55413093
      0.10000000	     -0.70554974	      4.04096475	    177.43725554	     -1.40512204	      1.02701634	     -0.05768546	      3.41019336	      6.43895331	     -3.40508007	    -10.70164555	      6.33391832	     -3.15514481	      1.95667197	     -3.10111343	     -5.02267885	    -11.27486273	     10.12748910	     -1.84918292	    -10.48172171	      4.37925693	      3.55539141
      0.11000000	     -0.70825637	      4.03580226	    177.43929899	     -1.40511611	      1.02701533	     -0.05779138	      3.42062843	      6.43874707	     -3.41227053	    -10.72704380	      6.33929812	     -3.14593646	      1.95820094	     -3.10197768	     -5.01722958	    -11.28125040	     10.12781198	     -1.84520698	    -10.49622171	      4.36816015	      3.55546391
      0.12000000	     -0.71150108	      4.03087488	    177.44025700	     -1.40511254	      1.02701636	     -0.05790284	      3.42887782	      6.43908228	     -3.41837681	    -10.75007616	      6.34611088	     -3.13479682	      1.95872620	     -3.10328020	     -5.01206039	    -11.28738307	     10.12868683	     -1.84021569	    -10.51055708	      4.35670998	      3.55517070
      0.13000000	     -0.71013031	      4.02908470	    177.44104876	     -1.40513127	      1.02700964	     -0.05802472	      3.43086379	      6.44456282	     -3.41928147	    -10.75287493	      6.34726500	     -3.13306792	      1.95947356	     -3.10887308	     -5.01091165	    -11.28734002	     10.12892970	     -1.83945401	    -10.51607419	      4.34655732	      3.55429408
